<svg width="27" height="29" viewBox="0 0 27 29" fill="none" xmlns="http://www.w3.org/2000/svg">
<path opacity="0.9" d="M26.5999 9.2L26.3999 8.8L26.2999 8.7L25.8999 8.4L25.6999 8.8L25.7999 8.3C25.7999 8.3 25.6999 8.3 25.5999 8.3L7.0999 5.7V3.5V3.4V3.3L6.8999 2.8L6.6999 2.6L6.4999 2.4L2.1999 0.6C1.5999 0.3 0.799902 0.6 0.599902 1.3C0.499902 1.6 0.499902 1.9 0.599902 2.2C0.699902 2.5 0.999902 2.8 1.2999 2.9L4.5999 4.3V20.4C4.5999 21.9 5.5999 23.3 6.9999 23.8C6.8999 24.2 6.7999 24.6 6.7999 25C6.7999 26.9 8.3999 28.5 10.2999 28.5C12.1999 28.5 13.7999 26.9 13.7999 25C13.7999 24.6 13.7999 24.3 13.5999 24H18.7999C18.6999 24.3 18.6999 24.7 18.6999 25C18.6999 26.9 20.2999 28.5 22.1999 28.5C24.0999 28.5 25.6999 26.9 25.6999 25C25.6999 23.1 24.0999 21.5 22.1999 21.5H8.1999C7.5999 21.5 7.0999 21 7.0999 20.4V19.1C7.3999 19.2 7.7999 19.3 8.1999 19.3H22.9999C24.9999 19.3 26.5999 17.7 26.5999 15.7V9.4C26.5999 9.4 26.5999 9.3 26.5999 9.2ZM22.2999 23.9C22.8999 23.9 23.2999 24.4 23.2999 24.9C23.2999 25.5 22.7999 25.9 22.2999 25.9C21.6999 25.9 21.2999 25.4 21.2999 24.9C21.2999 24.4 21.6999 23.9 22.2999 23.9ZM10.2999 23.9C10.8999 23.9 11.2999 24.4 11.2999 24.9C11.2999 25.5 10.7999 25.9 10.2999 25.9C9.6999 25.9 9.2999 25.4 9.2999 24.9C9.2999 24.4 9.7999 23.9 10.2999 23.9ZM24.0999 15.7C24.0999 16.3 23.5999 16.8 22.9999 16.8H8.1999C7.5999 16.8 7.0999 16.3 7.0999 15.7V8.2L24.0999 10.5V15.7ZM25.7999 9L25.8999 8.9L25.7999 9ZM26.0999 9H25.9999L26.2999 8.8L26.0999 9Z" fill="#FFC737"/>
</svg>
