<svg width="201" height="29" viewBox="0 0 201 29" fill="none" xmlns="http://www.w3.org/2000/svg">
<path opacity="0.9" d="M51.8 15C51.8 17.6 51.1 19.6 49.6 21C48.2 22.4 46.1 23.1 43.4 23.1H39V7.3H43.9C46.4 7.3 48.3 8 49.7 9.3C51.1 10.6 51.8 12.6 51.8 15ZM49.1 15.1C49.1 11.3 47.3 9.5 43.8 9.5H41.6V20.9H43.4C47.2 20.8 49.1 18.9 49.1 15.1ZM60.1 23.2C58.3 23.2 56.8 22.7 55.8 21.6C54.8 20.5 54.2 19 54.2 17.1C54.2 15.2 54.7 13.6 55.7 12.5C56.7 11.4 58 10.8 59.7 10.8C61.3 10.8 62.5 11.3 63.4 12.2C64.3 13.2 64.8 14.5 64.8 16.1V17.5H56.9C56.9 18.7 57.2 19.5 57.8 20.2C58.4 20.8 59.2 21.1 60.3 21.1C61 21.1 61.7 21 62.3 20.9C62.9 20.8 63.6 20.5 64.3 20.2V22.3C63.7 22.6 63.1 22.8 62.4 22.9C61.7 23.2 61 23.2 60.1 23.2ZM59.7 12.8C58.9 12.8 58.3 13.1 57.8 13.6C57.3 14.1 57 14.8 56.9 15.8H62.3C62.3 14.8 62 14.1 61.6 13.6C61.1 13.1 60.5 12.8 59.7 12.8ZM70.2 23H67.7V6.3H70.2V23ZM76.3 23H73.8V11.1H76.3V23ZM73.6 8C73.6 7.5 73.7 7.2 74 7C74.3 6.8 74.6 6.6 75.1 6.6C75.5 6.6 75.9 6.7 76.1 7C76.4 7.2 76.5 7.6 76.5 8C76.5 8.4 76.4 8.8 76.1 9C75.9 9.2 75.5 9.4 75.1 9.4C74.6 9.4 74.3 9.3 74 9C73.8 8.7 73.6 8.4 73.6 8ZM82.6 23L78.1 11.1H80.8L83.2 18C83.6 19.2 83.9 20.1 84 20.8C84.1 20.3 84.3 19.3 84.8 18L87.2 11.1H89.9L85.4 23H82.6ZM96.9 23.2C95.1 23.2 93.6 22.7 92.6 21.6C91.6 20.5 91 19 91 17.1C91 15.2 91.5 13.6 92.5 12.5C93.5 11.4 94.8 10.8 96.5 10.8C98.1 10.8 99.3 11.3 100.2 12.2C101.1 13.2 101.6 14.5 101.6 16.1V17.5H93.7C93.7 18.7 94 19.5 94.6 20.2C95.2 20.8 96 21.1 97.1 21.1C97.8 21.1 98.5 21 99.1 20.9C99.7 20.8 100.4 20.5 101.1 20.2V22.3C100.5 22.6 99.9 22.8 99.2 22.9C98.4 23.2 97.7 23.2 96.9 23.2ZM96.4 12.8C95.6 12.8 95 13.1 94.5 13.6C94 14.1 93.7 14.8 93.6 15.8H99C99 14.8 98.7 14.1 98.3 13.6C97.9 13.1 97.2 12.8 96.4 12.8ZM110.4 10.9C110.9 10.9 111.3 10.9 111.7 11L111.5 13.4C111.1 13.3 110.8 13.3 110.4 13.3C109.4 13.3 108.6 13.6 107.9 14.3C107.3 15 107 15.8 107 16.9V23H104.5V11.1H106.5L106.8 13.2H106.9C107.3 12.5 107.8 11.9 108.4 11.5C109 11.1 109.7 10.9 110.4 10.9ZM112.1 11.1H114.9L117.3 17.8C117.7 18.8 117.9 19.7 118 20.5H118.1C118.2 20.1 118.3 19.6 118.5 19.1C118.7 18.5 119.6 15.9 121.2 11.1H123.9L118.8 24.6C117.9 27.1 116.3 28.3 114.2 28.3C113.6 28.3 113.1 28.2 112.6 28.1V26.1C113 26.2 113.4 26.2 113.9 26.2C115.1 26.2 116 25.5 116.5 24.1L116.9 23L112.1 11.1ZM132.7 23L128.1 9.9H128C128.1 11.8 128.2 13.7 128.2 15.4V23H125.9V7.3H129.5L133.9 19.8H134L138.5 7.3H142.1V23H139.6V15.2C139.6 14.4 139.6 13.4 139.7 12.1C139.7 10.8 139.8 10.1 139.8 9.8H139.7L135 23H132.7ZM153.4 23L152.9 21.3H152.8C152.2 22 151.7 22.5 151.1 22.8C150.5 23.1 149.8 23.2 148.9 23.2C147.7 23.2 146.8 22.9 146.2 22.3C145.5 21.7 145.2 20.8 145.2 19.6C145.2 18.4 145.7 17.5 146.6 16.8C147.5 16.2 148.9 15.8 150.8 15.8L152.9 15.7V15.1C152.9 14.3 152.7 13.8 152.4 13.4C152 13 151.5 12.8 150.8 12.8C150.2 12.8 149.6 12.9 149 13.1C148.4 13.3 147.9 13.5 147.4 13.7L146.6 11.9C147.2 11.6 148 11.3 148.7 11.1C149.5 10.9 150.2 10.8 150.9 10.8C152.4 10.8 153.6 11.1 154.3 11.8C155.1 12.5 155.5 13.5 155.5 14.9V22.9H153.4V23ZM149.6 21.3C150.5 21.3 151.2 21 151.8 20.5C152.4 20 152.6 19.3 152.6 18.3V17.3L151.1 17.4C149.9 17.4 149 17.6 148.5 18C148 18.4 147.7 18.9 147.7 19.6C147.7 20.1 147.9 20.5 148.2 20.8C148.5 21.1 149 21.3 149.6 21.3ZM164.8 10.9C165.3 10.9 165.7 10.9 166.1 11L165.9 13.4C165.5 13.3 165.2 13.3 164.8 13.3C163.8 13.3 163 13.6 162.3 14.3C161.7 15 161.4 15.8 161.4 16.9V23H158.9V11.1H160.9L161.2 13.2H161.3C161.7 12.5 162.2 11.9 162.8 11.5C163.3 11.1 164 10.9 164.8 10.9ZM170.7 16.7L172.1 14.9L175.7 11.1H178.6L173.8 16.2L178.9 23H175.9L172.1 17.8L170.7 18.9V23H168.2V6.3H170.7V14.5V16.7ZM186 23.2C184.2 23.2 182.7 22.7 181.7 21.6C180.7 20.5 180.1 19 180.1 17.1C180.1 15.2 180.6 13.6 181.6 12.5C182.6 11.4 183.9 10.8 185.6 10.8C187.2 10.8 188.4 11.3 189.3 12.2C190.2 13.2 190.7 14.5 190.7 16.1V17.5H182.8C182.8 18.7 183.1 19.5 183.7 20.2C184.3 20.8 185.1 21.1 186.2 21.1C186.9 21.1 187.6 21 188.2 20.9C188.8 20.8 189.5 20.5 190.2 20.2V22.3C189.6 22.6 189 22.8 188.3 22.9C187.5 23.2 186.8 23.2 186 23.2ZM185.5 12.8C184.7 12.8 184.1 13.1 183.6 13.6C183.1 14.1 182.8 14.8 182.7 15.8H188.1C188.1 14.8 187.8 14.1 187.4 13.6C187 13.1 186.3 12.8 185.5 12.8ZM197.9 21.2C198.5 21.2 199.1 21.1 199.7 20.9V22.8C199.4 22.9 199.1 23 198.6 23.1C198.2 23.2 197.7 23.2 197.2 23.2C194.8 23.2 193.6 21.9 193.6 19.4V13H192V11.9L193.7 11L194.6 8.5H196.2V11.1H199.6V13H196.2V19.4C196.2 20 196.3 20.5 196.7 20.8C197 21 197.4 21.2 197.9 21.2Z" fill="#333333"/>
<g opacity="0.9">
<path opacity="0.9" d="M26.5999 9.2L26.3999 8.8L26.2999 8.7L25.8999 8.4L25.6999 8.8L25.7999 8.3C25.7999 8.3 25.6999 8.3 25.5999 8.3L7.0999 5.7V3.5V3.4V3.3L6.8999 2.8L6.6999 2.6L6.4999 2.4L2.1999 0.6C1.5999 0.3 0.799902 0.6 0.599902 1.3C0.499902 1.6 0.499902 1.9 0.599902 2.2C0.699902 2.5 0.999902 2.8 1.2999 2.9L4.5999 4.3V20.4C4.5999 21.9 5.5999 23.3 6.9999 23.8C6.8999 24.2 6.7999 24.6 6.7999 25C6.7999 26.9 8.3999 28.5 10.2999 28.5C12.1999 28.5 13.7999 26.9 13.7999 25C13.7999 24.6 13.7999 24.3 13.5999 24H18.7999C18.6999 24.3 18.6999 24.7 18.6999 25C18.6999 26.9 20.2999 28.5 22.1999 28.5C24.0999 28.5 25.6999 26.9 25.6999 25C25.6999 23.1 24.0999 21.5 22.1999 21.5H8.1999C7.5999 21.5 7.0999 21 7.0999 20.4V19.1C7.3999 19.2 7.7999 19.3 8.1999 19.3H22.9999C24.9999 19.3 26.5999 17.7 26.5999 15.7V9.4C26.5999 9.4 26.5999 9.3 26.5999 9.2ZM22.2999 23.9C22.8999 23.9 23.2999 24.4 23.2999 24.9C23.2999 25.5 22.7999 25.9 22.2999 25.9C21.6999 25.9 21.2999 25.4 21.2999 24.9C21.2999 24.4 21.6999 23.9 22.2999 23.9ZM10.2999 23.9C10.8999 23.9 11.2999 24.4 11.2999 24.9C11.2999 25.5 10.7999 25.9 10.2999 25.9C9.6999 25.9 9.2999 25.4 9.2999 24.9C9.2999 24.4 9.7999 23.9 10.2999 23.9ZM24.0999 15.7C24.0999 16.3 23.5999 16.8 22.9999 16.8H8.1999C7.5999 16.8 7.0999 16.3 7.0999 15.7V8.2L24.0999 10.5V15.7ZM25.7999 9L25.8999 8.9L25.7999 9ZM26.0999 9H25.9999L26.2999 8.8L26.0999 9Z" fill="#FFC737"/>
</g>
</svg>
