<svg width="26" height="35" viewBox="0 0 26 35" fill="none" xmlns="http://www.w3.org/2000/svg">
<path d="M12.8848 0C5.78047 0 0 5.78047 0 12.8855C0 14.7388 0.379323 16.5082 1.12686 18.1452C4.34842 25.1947 10.525 32.6375 12.3418 34.7505C12.4779 34.9085 12.6763 34.9994 12.8852 34.9994C13.094 34.9994 13.2924 34.9085 13.4285 34.7505C15.2446 32.6379 21.4212 25.1954 24.6438 18.1452C25.3917 16.5082 25.7707 14.7388 25.7707 12.8855C25.77 5.78047 19.9895 0 12.8848 0ZM12.8848 19.5783C9.19437 19.5783 6.19167 16.5756 6.19167 12.8852C6.19167 9.19437 9.19437 6.19167 12.8848 6.19167C16.5752 6.19167 19.5779 9.19437 19.5779 12.8852C19.5783 16.5756 16.5756 19.5783 12.8848 19.5783Z" fill="#F5DB4B"/>
</svg>
